arm26_optimize_states
version=1
nRows=37
nColumns=17
inDegrees=yes

# SIMM Motion File Header:
name arm26_optimize_states
datacolumns 17
datarows 37
otherdata 1
range 1.13461462 1.15859497
endheader
time	r_shoulder_elev	r_elbow_flex	r_shoulder_elev_u	r_elbow_flex_u	TRIlong.activation	TRIlong.fiber_length	TRIlat.activation	TRIlat.fiber_length	TRImed.activation	TRImed.fiber_length	BIClong.activation	BIClong.fiber_length	BICshort.activation	BICshort.fiber_length	BRA.activation	BRA.fiber_length
      1.13461462	     40.87579525	    -12.84340810	     59.68701722	    384.31003947	      0.01000002	      0.15780283	      0.08110065	      0.06646793	      0.18169609	      0.06123256	      0.10000183	      0.13428494	      0.01000002	      0.15712486	      0.10918992	      0.08524333
      1.13552614	     40.93017229	    -12.49436691	     59.63634603	    381.48628988	      0.01000002	      0.15790243	      0.08110065	      0.06651194	      0.18169609	      0.06127645	      0.10000183	      0.13427636	      0.01000002	      0.15714100	      0.10918992	      0.08528654
      1.13643767	     40.98454320	    -12.14801251	     59.67384343	    378.41606446	      0.01000002	      0.15796109	      0.08110065	      0.06656019	      0.18169609	      0.06132422	      0.10000183	      0.13426655	      0.01000002	      0.15715604	      0.10918992	      0.08532876
      1.13725449	     41.03332249	    -11.84010710	     59.77322641	    375.46843132	      0.01000002	      0.15810717	      0.08110065	      0.06660642	      0.18169609	      0.06136984	      0.10000183	      0.13425671	      0.01000002	      0.15716861	      0.10918992	      0.08536574
      1.13807131	     41.08221359	    -11.53468635	     59.94578016	    372.33423573	      0.01000002	      0.15812548	      0.08110065	      0.06665502	      0.18169609	      0.06141777	      0.10000183	      0.13424587	      0.01000002	      0.15718039	      0.10918992	      0.08540192
      1.13869655	     41.11974446	    -11.30267005	     60.11325817	    369.81907693	      0.01000002	      0.15817364	      0.08110065	      0.06669361	      0.18169609	      0.06145584	      0.10000183	      0.13423691	      0.01000002	      0.15718888	      0.10918992	      0.08542906
      1.13962365	     41.17561463	    -10.96160522	     60.42421983	    365.90480346	      0.01000002	      0.15832446	      0.08110065	      0.06675278	      0.18169609	      0.06151425	      0.10000183	      0.13422254	      0.01000002	      0.15720071	      0.10918992	      0.08546844
      1.14055076	     41.23181148	    -10.62426878	     60.81623663	    361.77713599	      0.01000002	      0.15835764	      0.08110065	      0.06681402	      0.18169609	      0.06157475	      0.10000183	      0.13420689	      0.01000002	      0.15721167	      0.10918992	      0.08550676
      1.14137013	     41.28180308	    -10.32939529	     61.21833708	    357.95526785	      0.01000001	      0.15843523	      0.08110065	      0.06686967	      0.18169609	      0.06162976	      0.10000183	      0.13419199	      0.01000001	      0.15722069	      0.10918992	      0.08553975
      1.14199897	     41.32040665	    -10.10524962	     61.56349664	    354.91426516	      0.01000001	      0.15855065	      0.08110065	      0.06691325	      0.18169609	      0.06167286	      0.10000183	      0.13417988	      0.01000001	      0.15722722	      0.10918992	      0.08556452
      1.14262781	     41.35923830	     -9.88304346	     61.94320887	    351.78665896	      0.01000001	      0.15857372	      0.08110065	      0.06695752	      0.18169609	      0.06171666	      0.10000183	      0.13416719	      0.01000001	      0.15723342	      0.10918992	      0.08558881
      1.14321484	     41.39571083	     -9.67741282	     62.32321244	    348.78438385	      0.01000001	      0.15862730	      0.08110065	      0.06699940	      0.18169609	      0.06175811	      0.10000183	      0.13415482	      0.01000001	      0.15723895	      0.10918992	      0.08561105
      1.14392912	     41.44040270	     -9.42961592	     62.82015511	    345.02842809	      0.01000001	      0.15876039	      0.08110065	      0.06705104	      0.18169609	      0.06180923	      0.10000183	      0.13413909	      0.01000001	      0.15724534	      0.10918992	      0.08563755
      1.14464341	     41.48546415	     -9.18453732	     63.35736504	    341.17248132	      0.01000001	      0.15878514	      0.08110065	      0.06710333	      0.18169609	      0.06186102	      0.10000183	      0.13412262	      0.01000001	      0.15725139	      0.10918992	      0.08566344
      1.14522985	     41.52275489	     -8.98541040	     63.82385126	    337.92288369	      0.01000001	      0.15884101	      0.08110065	      0.06714669	      0.18169609	      0.06190398	      0.10000183	      0.13410856	      0.01000001	      0.15725614	      0.10918992	      0.08568424
      1.14589070	     41.56511442	     -8.76332623	     64.37770092	    334.17649809	      0.01000001	      0.15896706	      0.08110065	      0.06719597	      0.18169609	      0.06195280	      0.10000183	      0.13409213	      0.01000001	      0.15726127	      0.10918992	      0.08570719
      1.14655155	     41.60785030	     -8.54374230	     64.96241489	    330.35520645	      0.01000001	      0.15899108	      0.08110065	      0.06724562	      0.18169609	      0.06200201	      0.10000183	      0.13407510	      0.01000001	      0.15726618	      0.10918992	      0.08572963
      1.14711779	     41.64478130	     -8.35762817	     65.48498875	    327.00898816	      0.01000001	      0.15904604	      0.08110065	      0.06728841	      0.18169609	      0.06204443	      0.10000183	      0.13406002	      0.01000001	      0.15727025	      0.10918992	      0.08574845
      1.14776091	     41.68709364	     -8.14856196	     66.10283926	    323.13484181	      0.01000001	      0.15917279	      0.08110065	      0.06733725	      0.18169609	      0.06209285	      0.10000183	      0.13404238	      0.01000001	      0.15727471	      0.10918992	      0.08576937
      1.14840403	     41.72981177	     -7.94200639	     66.74663433	    319.20002210	      0.01000001	      0.15919524	      0.08110065	      0.06738629	      0.18169609	      0.06214148	      0.10000183	      0.13402418	      0.01000001	      0.15727905	      0.10918992	      0.08578982
      1.14894854	     41.76630806	     -7.76912379	     67.31025956	    315.80498795	      0.01000001	      0.15924809	      0.08110065	      0.06742793	      0.18169609	      0.06218277	      0.10000183	      0.13400835	      0.01000001	      0.15728263	      0.10918992	      0.08580677
      1.14958316	     41.80923908	     -7.56997714	     67.98844688	    311.78291585	      0.01000001	      0.15937629	      0.08110065	      0.06747655	      0.18169609	      0.06223100	      0.10000183	      0.13398941	      0.01000001	      0.15728673	      0.10918992	      0.08582608
      1.15021779	     41.85260756	     -7.37339814	     68.68874628	    307.71143831	      0.01000001	      0.15939749	      0.08110065	      0.06752523	      0.18169609	      0.06227929	      0.10000183	      0.13396997	      0.01000001	      0.15729076	      0.10918992	      0.08584493
      1.15074580	     41.88903295	     -7.21183314	     69.28766361	    304.26659742	      0.01000001	      0.15944855	      0.08110065	      0.06756574	      0.18169609	      0.06231948	      0.10000183	      0.13395342	      0.01000001	      0.15729408	      0.10918992	      0.08586027
      1.15137902	     41.93314003	     -7.02048626	     70.02482254	    300.07665750	      0.01000001	      0.15958108	      0.08110065	      0.06761429	      0.18169609	      0.06236766	      0.10000183	      0.13393312	      0.01000001	      0.15729804	      0.10918992	      0.08587826
      1.15201225	     41.97771989	     -6.83180414	     70.78082726	    295.84795486	      0.01000001	      0.15959992	      0.08110065	      0.06766277	      0.18169609	      0.06241578	      0.10000183	      0.13391235	      0.01000001	      0.15730200	      0.10918992	      0.08589581
      1.15252731	     42.01433779	     -6.68032293	     71.41019189	    292.35527415	      0.01000001	      0.15964849	      0.08110065	      0.06770213	      0.18169609	      0.06245485	      0.10000183	      0.13389512	      0.01000001	      0.15730524	      0.10918992	      0.08590977
      1.15316252	     42.05994931	     -6.49599637	     72.20315113	    287.99477394	      0.01000001	      0.15978554	      0.08110065	      0.06775053	      0.18169609	      0.06250290	      0.10000183	      0.13387346	      0.01000001	      0.15730928	      0.10918992	      0.08592661
      1.15379773	     42.10606951	     -6.31444779	     73.01181686	    283.60594922	      0.01000001	      0.15980214	      0.08110065	      0.06779874	      0.18169609	      0.06255077	      0.10000183	      0.13385136	      0.01000001	      0.15731338	      0.10918992	      0.08594303
      1.15430544	     42.14330496	     -6.17136149	     73.67118675	    280.04795438	      0.01000001	      0.15984850	      0.08110065	      0.06783712	      0.18169609	      0.06258887	      0.10000183	      0.13383339	      0.01000001	      0.15731672	      0.10918992	      0.08595585
      1.15494301	     42.19054356	     -5.99424643	     74.51403759	    275.53189518	      0.01000001	      0.15998894	      0.08110065	      0.06788507	      0.18169609	      0.06263650	      0.10000183	      0.13381044	      0.01000001	      0.15732103	      0.10918992	      0.08597159
      1.15558059	     42.23832348	     -5.82001548	     75.36943747	    270.99772478	      0.01000001	      0.16000379	      0.08110065	      0.06793274	      0.18169609	      0.06268384	      0.10000183	      0.13378710	      0.01000001	      0.15732547	      0.10918992	      0.08598692
      1.15608476	     42.27649560	     -5.68430146	     76.05770895	    267.36454169	      0.01000001	      0.16004838	      0.08110065	      0.06797020	      0.18169609	      0.06272106	      0.10000183	      0.13376837	      0.01000001	      0.15732909	      0.10918992	      0.08599876
      1.15672746	     42.32566300	     -5.51396588	     76.94813120	    262.68972480	      0.01000001	      0.16019187	      0.08110065	      0.06801763	      0.18169609	      0.06276817	      0.10000183	      0.13374414	      0.01000001	      0.15733388	      0.10918992	      0.08601350
      1.15737015	     42.37540562	     -5.34663629	     77.84803852	    258.00661595	      0.01000001	      0.16020531	      0.08110065	      0.06806465	      0.18169609	      0.06281490	      0.10000183	      0.13371956	      0.01000001	      0.15733889	      0.10918992	      0.08602785
      1.15787955	     42.41524507	     -5.21616556	     78.57229922	    254.24850814	      0.01000001	      0.16024898	      0.08110065	      0.06810163	      0.18169609	      0.06285164	      0.10000183	      0.13369982	      0.01000001	      0.15734302	      0.10918992	      0.08603895
      1.15859497	     42.47182492	     -5.03617066	     79.60289527	    248.92359472	      0.01000001	      0.16046148	      0.08110065	      0.06815307	      0.18169609	      0.06290277	      0.10000183	      0.13367174	      0.01000001	      0.15734911	      0.10918992	      0.08605413
